<?xml version="1.0" encoding="utf-8"?>
<!-- Generator: Adobe Illustrator 25.1.0, SVG Export Plug-In . SVG Version: 6.00 Build 0)  -->
<svg version="1.1" id="Ebene_1" xmlns="http://www.w3.org/2000/svg" xmlns:xlink="http://www.w3.org/1999/xlink" x="0px" y="0px"
	 viewBox="0 0 480 480" style="enable-background:new 0 0 480 480;" xml:space="preserve">
<style type="text/css">
	.st0{fill:#FFFFFF;}
</style>
<path class="st0" d="M149.8,278.4c4,0,7.3-2.9,7.9-6.8c0.6-3.9-1.8-7.7-5.6-8.8c-16.5-5-34.5-23.1-49.2-49.8
	c-2.1-3.9-7-5.3-10.9-3.1c-3.9,2.1-5.3,7-3.1,10.9c16.8,30.3,38.2,51.2,58.6,57.3C148.3,278.3,149,278.4,149.8,278.4z"/>
<path class="st0" d="M232.4,100.6c4.9,11.1,7.5,23.2,7.6,35.4c0,4.4,3.6,8,8,8c4.4,0,8-3.6,8-8c-0.1-14.4-3.1-28.6-8.9-41.8
	c-7.4-17.3-19.2-32.5-34.3-43.8c-3.5-2.6-8.5-1.9-11.2,1.6s-1.9,8.6,1.6,11.2C216.1,72.9,226.1,85.8,232.4,100.6z"/>
<path class="st0" d="M160,48c7.3,0,14.5,1.3,21.4,3.6c4.2,1.4,8.7-0.8,10.2-5c1.4-4.2-0.8-8.7-5-10.2C178,33.5,169.1,32,160,32
	c-4.4,0-8,3.6-8,8S155.6,48,160,48z"/>
<path class="st0" d="M312.1,326.7c-16.5-5-34.5-23.1-49.2-49.8c-2.1-3.9-7-5.3-10.9-3.1c-3.9,2.1-5.3,7-3.1,10.9
	c16.8,30.3,38.2,51.2,58.6,57.3c2.8,0.9,5.8,0.2,7.9-1.8c2.1-2,3-4.9,2.3-7.7C317,329.8,314.9,327.5,312.1,326.7z"/>
<path class="st0" d="M372.8,114.4c-3.5-2.6-8.5-1.9-11.2,1.6c-2.7,3.5-1.9,8.6,1.6,11.2c12.8,9.7,22.9,22.6,29.2,37.4
	c5,11.2,7.6,23.2,7.6,35.4c0,4.4,3.6,8,8,8s8-3.6,8-8c-0.1-14.4-3.1-28.6-8.9-41.8C399.7,140.9,387.9,125.8,372.8,114.4z"/>
<path class="st0" d="M346.6,100.5C338,97.5,329.1,96,320,96c-4.4,0-8,3.6-8,8s3.6,8,8,8c7.3,0,14.5,1.3,21.4,3.6
	c4.2,1.4,8.7-0.8,10.2-5C353,106.4,350.8,101.9,346.6,100.5z"/>
<path class="st0" d="M319.9,64h-0.1c-16.1,0.1-32.1,3.5-46.8,10.2C252.4,30.1,208.7,1.3,160,0C91.8,0,32,63.5,32,136
	c0,62.7,43,147.8,99.5,170.2l-3.4,20.5c-0.4,2.3,0.3,4.7,1.8,6.5c1.5,1.8,3.7,2.8,6.1,2.8h12.9l-5.1,15.2
	c-5.5,16.4-3.1,34.4,6.6,48.8l5.9,8.9c6.9,10.3,8.6,23.1,4.7,34.8l-8.6,25.7c-1.4,4.2,0.9,8.7,5.1,10.1c4.2,1.4,8.7-0.9,10.1-5.1
	l8.5-25.7c5.5-16.4,3.1-34.4-6.6-48.8l-5.9-8.9c-6.9-10.3-8.6-23.1-4.7-34.8l6.8-20.2H184c2.4,0,4.6-1,6.1-2.8s2.2-4.2,1.8-6.5
	l-3.4-20.5c9.8-3.9,18.9-9.3,27-15.9c16.8,33.7,43.3,67.1,76,80l-3.4,20.4c-0.4,2.3,0.3,4.7,1.8,6.5c1.5,1.8,3.7,2.8,6.1,2.8h12.9
	l-5.1,15.2c-5.5,16.4-3.1,34.4,6.6,48.8l5.9,8.9c0.6,1,1.2,2,1.8,3c1.4,2.6,4.1,4.2,7,4.2c1.3,0,2.6-0.3,3.8-1
	c3.9-2.1,5.3-7,3.2-10.8c-0.8-1.4-1.6-2.8-2.5-4.2l-5.9-8.9c-6.9-10.3-8.6-23.1-4.7-34.8l6.7-20.3H344c2.4,0,4.6-1,6.1-2.8
	c1.5-1.8,2.2-4.2,1.8-6.5l-3.4-20.3c22.9-8.9,44.7-28.5,63.2-57.4c22.1-33.8,34.6-72.9,36.3-113.3C447.8,127.4,388,64,319.9,64z
	 M48,136c0-63.9,52.3-120,112-120c43,0,82.9,28.2,101.8,71.9c6.7,15.2,10.2,31.5,10.2,48.1c0,5.9-0.4,11.8-1.2,17.6
	c-0.9,7-2.3,13.9-4,20.7c-8.9,36.7-27.6,70.3-54.1,97.2c-10,10-22.2,17.4-35.6,21.8c-8.3,2.6-17.2,3.3-25.8,2
	c-2.9-0.4-5.8-1.1-8.6-2C90.3,277.6,48,194.4,48,136z M145.5,320l1.5-9.2c0.5,0.1,0.9,0.1,1.4,0.2c0.5,0.1,1.2,0.2,1.8,0.2
	c3.2,0.5,6.5,0.7,9.8,0.8h0.3c3.3,0,6.5-0.3,9.7-0.7c0.6-0.1,1.2-0.1,1.8-0.2c0.6-0.1,0.9-0.1,1.4-0.2l1.5,9.2H145.5z M334.6,384
	h-29.1l1.5-9.2c0.9,0.2,1.8,0.2,2.7,0.4c0.8,0.1,1.5,0.2,2.2,0.3c2.7,0.3,5.4,0.5,8.1,0.5h0.2c4.3,0,8.6-0.4,12.8-1.2L334.6,384z
	 M398.3,304.4c-18.1,28.1-39.8,46.7-61.5,53.1c-2.5,0.7-5.1,1.3-7.7,1.7l-1.1,0.2c-5.3,0.8-10.7,0.8-16.1,0c-0.7-0.1-1.3-0.3-2-0.4
	c-2.2-0.4-4.4-0.9-6.5-1.5c-32.5-9.3-59.3-44.1-75.6-78.4c0.5-0.5,0.9-1,1.4-1.5c1-1.1,2-2.1,3-3.2c1.2-1.3,2.3-2.6,3.5-3.9
	c1-1.1,1.9-2.3,2.9-3.5c1.1-1.4,2.2-2.8,3.3-4.2c0.9-1.2,1.9-2.5,2.8-3.7c1.1-1.5,2.1-2.9,3.1-4.4c0.9-1.3,1.8-2.6,2.7-4
	c1-1.5,2-3.1,2.9-4.6c0.9-1.4,1.7-2.8,2.5-4.2c0.9-1.6,1.8-3.2,2.7-4.8c0.8-1.4,1.6-2.9,2.4-4.3c0.9-1.6,1.7-3.3,2.5-4.9
	c0.8-1.5,1.5-3,2.2-4.5c0.8-1.7,1.6-3.4,2.4-5.1c0.7-1.5,1.4-3,2-4.5c0.7-1.7,1.4-3.5,2.1-5.2c0.6-1.5,1.2-3,1.8-4.6
	c0.7-1.8,1.3-3.5,1.9-5.3c0.5-1.5,1.1-3.1,1.6-4.6c0.6-1.8,1.1-3.6,1.7-5.4c0.5-1.5,0.9-3,1.4-4.5c0.5-1.8,1-3.6,1.4-5.5
	c0.4-1.5,0.8-3,1.1-4.4c0.4-1.9,0.8-3.7,1.2-5.6c0.3-1.4,0.6-2.9,0.9-4.3c0.3-1.9,0.6-3.8,0.9-5.7c0.2-1.3,0.4-2.6,0.6-3.9
	c0.3-2.1,0.4-4.2,0.6-6.3c0.1-1.1,0.2-2.2,0.3-3.2c0.2-3.1,0.3-6.2,0.3-9.2c0-4.3-0.3-8.7-0.7-13c-0.1-1.4-0.4-2.8-0.6-4.3
	c-0.4-2.9-0.8-5.8-1.4-8.7c-0.3-1.7-0.7-3.3-1.1-5c-0.6-2.6-1.3-5.3-2.1-7.9c-0.5-1.7-1.1-3.4-1.6-5c-0.4-1.2-0.7-2.4-1.2-3.6
	c12.7-5.7,26.5-8.6,40.4-8.6h0.1c59.6,0,112,55.9,112.1,119.8C430.4,237,418.7,273.2,398.3,304.4z"/>
</svg>
