<?xml version="1.0" encoding="utf-8"?>
<!-- Generator: Adobe Illustrator 25.0.1, SVG Export Plug-In . SVG Version: 6.00 Build 0)  -->
<svg version="1.1" id="Layer_1" xmlns="http://www.w3.org/2000/svg" xmlns:xlink="http://www.w3.org/1999/xlink" x="0px" y="0px"
	 viewBox="0 0 27 34" style="enable-background:new 0 0 27 34;" xml:space="preserve">
<style type="text/css">
	.st0{fill:#FFFFFF;}
</style>
<desc>Created with Sketch.</desc>
<g id="Page-1">
	<g id="_x31_-1-1-Сryptoguys-Landing-pre-ico" transform="translate(-326.000000, -13698.000000)">
		<g id="Documents" transform="translate(160.000000, 13415.000000)">
			<g id="_x31_" transform="translate(0.000000, 254.000000)">
				<path id="Shape" class="st0" d="M187.7,51.2c-0.4,0.1-1,0.1-1.7,0c-0.7-0.1-1.4-0.3-2.1-0.6c1.2-0.2,2.2-0.1,3,0.2
					C187.2,50.8,187.5,51,187.7,51.2z M180.8,50c-0.1,0-0.1,0-0.2,0c-0.3,0.1-0.7,0.2-1,0.3l-0.4,0.1c-0.9,0.2-1.7,0.4-2.6,0.7
					c0.3-0.8,0.6-1.6,0.9-2.4c0.2-0.6,0.4-1.2,0.7-1.8c0.1,0.2,0.2,0.4,0.4,0.6C179.2,48.5,179.9,49.3,180.8,50z M178.6,41.1
					c0.1,1-0.2,1.9-0.5,2.8c-0.4-1.1-0.6-2.3-0.1-3.3c0.1-0.3,0.2-0.4,0.3-0.5C178.4,40.3,178.6,40.6,178.6,41.1z M174.1,53.5
					c-0.2,0.4-0.4,0.7-0.7,1.1c-0.5,0.8-1.4,1.7-1.9,1.7c0,0-0.1,0-0.2-0.1c-0.1-0.1-0.1-0.1-0.1-0.1c0-0.3,0.4-0.8,1-1.3
					C172.9,54.2,173.5,53.8,174.1,53.5z M189.1,51.2c-0.1-1-1.7-1.6-1.8-1.6c-0.6-0.2-1.3-0.3-2.1-0.3c-0.9,0-1.8,0.1-3,0.4
					c-1.1-0.7-2-1.7-2.6-2.7c-0.3-0.5-0.6-0.9-0.8-1.4c0.6-1.4,1.1-2.9,1-4.5c-0.1-1.3-0.7-2.2-1.5-2.2c-0.6,0-1,0.4-1.4,1.2
					c-0.7,1.5-0.5,3.3,0.5,5.6c-0.4,0.9-0.7,1.8-1.1,2.7c-0.4,1.1-0.9,2.3-1.4,3.4c-1.4,0.6-2.5,1.2-3.5,2c-0.6,0.5-1.4,1.4-1.4,2.2
					c0,0.4,0.1,0.8,0.4,1.1c0.3,0.3,0.7,0.5,1.1,0.5c1.4,0,2.7-1.9,2.9-2.2c0.5-0.8,1-1.6,1.4-2.6c1.2-0.4,2.4-0.7,3.6-1l0.4-0.1
					c0.3-0.1,0.7-0.2,1-0.3c0.4-0.1,0.7-0.2,1.1-0.3c1.2,0.8,2.5,1.3,3.8,1.5c1.1,0.2,2,0.1,2.7-0.3
					C189.1,51.9,189.1,51.4,189.1,51.2z M191.8,59.8c0,1.8-1.6,1.9-1.9,1.9h-20.7c-1.8,0-1.9-1.6-1.9-1.9V32.2
					c0-1.8,1.6-1.9,1.9-1.9h14l0,0v5.5c0,1.1,0.7,3.2,3.2,3.2h5.4l0,0V59.8z M190.5,37.7h-4.2c-1.8,0-1.9-1.6-1.9-1.9v-4.2
					L190.5,37.7z M193,59.8V38.4l-8.6-8.7v0h0l-0.7-0.7h-14.5c-1.1,0-3.2,0.7-3.2,3.2v27.6c0,1.1,0.7,3.2,3.2,3.2h20.7
					C190.9,63,193,62.3,193,59.8z"/>
			</g>
		</g>
	</g>
</g>
</svg>
