<svg width="512" height="512" xmlns="http://www.w3.org/2000/svg" xml:space="preserve" version="1.1">

 <g>
  <title>Layer 1</title>
  <path id="svg_1" fill="#FFFFFF" d="m79,469.5c-1.2,2.8 -0.5,8.5 0,11c0.8,0.7 5.4,2.5 17,4.5c14.5,2.5 33.5,-0.5 35.5,-1.5s1.5,-4.5 1,-6.5s-5.5,-3.5 -8,-4s-2,1.5 -3,2.5s-4,-0.5 -7,-3s-3,-10.5 -2.5,-16s4.5,-26.5 4.5,-28s0.5,-18 0.5,-20s11.5,-2.5 15.5,-2.5s41,-4.5 45.5,-4.5s7,-5 7,-7.5s-14.5,-18.5 -16.5,-19.5s-8.5,-10 -9.5,-10s-1,1 -1,2s9,10.5 9.5,11s0,3.5 -1,3.5s-3,-3.5 -4,-3s0.5,2 -3.5,2s-3.5,-5.5 -4.5,-8.5s-3.5,-8 -3.5,-12l0,-8.5c0,-1 -4,-8 -5.5,-11s-2,-13 -2,-16.5s-9,-16 -10.5,-18.5s-7,-7 -8.5,-7s-5.5,3 -6,4.5s2.5,1 4,2s2,5.5 3,7s10,15 10.5,17s7,20 7.5,22.5s-1,1.5 -2,1s-9.5,-24 -10,-25s-4.5,-7.5 -5.5,-7.5s0.5,4.5 1.5,6s3.5,10.5 2.5,10.5s-8,-14.5 -8.5,-16.5s-7,-15 -7.5,-16.5s2.5,-3 3,-4s-1,-1.5 -3,-1.5s-9.5,-3.5 -9.5,-5s2.5,-4 3.5,-5s1.5,-2 1.5,-3s-4,-3 -5,-4.5s1.5,-2.5 2,-3s2.5,-3.5 2,-4.5s-8.5,-5 -10.5,-4s-7,13.5 -8,16s-5,15.5 -5,18s1,14 2,16s7.5,7.5 8.5,8s3.5,3.5 4,5s-2,1 -3,0.5s-2,-2.5 -4,-2.5s0.5,2 1,3.5s3.5,4 3.5,5s0,2 -1,2s-4.5,-3 -5.5,-5s-2.5,-5.5 -3.5,-8s-6.5,-6.5 -8.5,-11.5s-1.5,-15.5 -1.5,-18s6,-2.5 7,-5.5s2.5,-11 4,-21.5s5,-9.5 8,-9.5s9,6.5 10.5,6.5s1,-4.5 0,-6.5s-14.5,-7 -16,-10s4.5,-2 6.5,-3.5s8,-0.5 9.5,-1.5s1,-6 2.5,-9s17,-10 17,-12s-2,-2 -4.5,-3.5s-2.5,-3.5 -2.5,-5s-1,-3.5 -4,-4s-5,-4 -7.5,-4.5s-5,-1.5 -7,-1c-2,0.5 -7.5,-3 -9.5,-4s-8.5,-2 -7.5,-3.5s6.5,-1.5 8.5,-1.5s7.5,3.5 9,4c1.5,0.5 4.5,-1.5 4,-2.5s-2,-1.5 -2.5,-2s3,-1.5 1.5,-2.5s-7,-0.5 -7,-2s1.5,-2.5 3,-3c1.5,-0.5 0.5,-2.5 -0.5,-4c-1,-1.5 -8.5,-5.5 -9,-8.5s7.5,0 10.5,0c3,0 2,5 5.5,7s4.5,1 6.5,0s8,-2.5 13,-4s4.5,-1.5 1.5,-3s-22,-3.5 -32.5,-3.5c-10.5,0 -20,3.5 -29.5,15s-6.5,23 -2.5,32.5s12,15.5 17.5,16.5c5.5,1 2.5,1.5 2.5,4.5s-6,7.5 -8,10s-6,8.5 -6,11.5s3,2 4,6.5s-2.5,14 -4,21.5s-1.5,10 -2,13s2,14 2,19.5s-3.5,8 -3.5,13.5s0.5,38.5 0,42s-5.5,10 -6.5,13s-2.5,4 3,7.5c4.4,2.8 15.8,5.2 21,6c-0.2,0.8 -0.9,4.1 -2.5,10.5c-2,8 -1.5,17 0,31.5c1.5,14.5 0,17.5 -1.5,21z" class="st0"/>
  <path id="svg_2" fill="#0D0213" d="m133,239c-2,2 -14.5,4.5 -21.5,7c-2,2.5 0,3 0.5,4.5s4.5,5.5 6.5,7s6,7.5 7.5,10s4,6 4.5,8s1,6 2.5,5.5s1,-5 0.5,-7.5s-3,-4 -4.5,-7s-1.5,-7 -1,-9s9,-6.5 13.5,-8.5s14.5,-8.5 17.5,-11s14,-9.5 17.5,-11.5s3.5,-2.5 8,-2.5s7,1 7.5,0s-0.5,-1.5 -2.5,-2.5s-1,-1 -2,-3s0,-2 2,-3.5s5,-5 6,-7s5.5,-4 4,-5s-4,2.5 -6,3s-1.5,1 -2,0s2.5,-4.5 3,-5.5s-1,-1 -2.5,0s-2.5,2.5 -4.5,5s-5,2.5 -6.5,2.5s-3.5,4.5 -4,5.5s-19,13 -21,13.5s-11,2 -13,2.5s-8,7.5 -10,9.5z" class="st1"/>
  <path id="svg_3" fill="#0D0213" d="m130.5,290.5c-1,-1.5 0,-4.5 0,-5.5c0.5,-1 3,1 4.5,2.5s0,3 0,5s-3.5,-0.5 -4.5,-2z" class="st1"/>
  <path id="svg_4" stroke="#FFFFFF" fill="#FFFFFF" d="m79,469.5c-1.2,2.8 -0.5,8.5 0,11c0.8,0.7 5.4,2.5 17,4.5c14.5,2.5 33.5,-0.5 35.5,-1.5s1.5,-4.5 1,-6.5s-5.5,-3.5 -8,-4s-2,1.5 -3,2.5s-4,-0.5 -7,-3s-3,-10.5 -2.5,-16s4.5,-26.5 4.5,-28s0.5,-18 0.5,-20s11.5,-2.5 15.5,-2.5s41,-4.5 45.5,-4.5s7,-5 7,-7.5s-14.5,-18.5 -16.5,-19.5s-8.5,-10 -9.5,-10s-1,1 -1,2s9,10.5 9.5,11s0,3.5 -1,3.5s-3,-3.5 -4,-3s0.5,2 -3.5,2s-3.5,-5.5 -4.5,-8.5s-3.5,-8 -3.5,-12l0,-8.5c0,-1 -4,-8 -5.5,-11s-2,-13 -2,-16.5s-9,-16 -10.5,-18.5s-7,-7 -8.5,-7s-5.5,3 -6,4.5s2.5,1 4,2s2,5.5 3,7s10,15 10.5,17s7,20 7.5,22.5s-1,1.5 -2,1s-9.5,-24 -10,-25s-4.5,-7.5 -5.5,-7.5s0.5,4.5 1.5,6s3.5,10.5 2.5,10.5s-8,-14.5 -8.5,-16.5s-7,-15 -7.5,-16.5s2.5,-3 3,-4s-1,-1.5 -3,-1.5s-9.5,-3.5 -9.5,-5s2.5,-4 3.5,-5s1.5,-2 1.5,-3s-4,-3 -5,-4.5s1.5,-2.5 2,-3s2.5,-3.5 2,-4.5s-8.5,-5 -10.5,-4s-7,13.5 -8,16s-5,15.5 -5,18s1,14 2,16s7.5,7.5 8.5,8s3.5,3.5 4,5s-2,1 -3,0.5s-2,-2.5 -4,-2.5s0.5,2 1,3.5s3.5,4 3.5,5s0,2 -1,2s-4.5,-3 -5.5,-5s-2.5,-5.5 -3.5,-8s-6.5,-6.5 -8.5,-11.5s-1.5,-15.5 -1.5,-18s6,-2.5 7,-5.5s2.5,-11 4,-21.5s5,-9.5 8,-9.5s9,6.5 10.5,6.5s1,-4.5 0,-6.5s-14.5,-7 -16,-10s4.5,-2 6.5,-3.5s8,-0.5 9.5,-1.5s1,-6 2.5,-9s17,-10 17,-12s-2,-2 -4.5,-3.5s-2.5,-3.5 -2.5,-5s-1,-3.5 -4,-4s-5,-4 -7.5,-4.5s-5,-1.5 -7,-1c-2,0.5 -7.5,-3 -9.5,-4s-8.5,-2 -7.5,-3.5s6.5,-1.5 8.5,-1.5s7.5,3.5 9,4c1.5,0.5 4.5,-1.5 4,-2.5s-2,-1.5 -2.5,-2s3,-1.5 1.5,-2.5s-7,-0.5 -7,-2s1.5,-2.5 3,-3c1.5,-0.5 0.5,-2.5 -0.5,-4c-1,-1.5 -8.5,-5.5 -9,-8.5s7.5,0 10.5,0c3,0 2,5 5.5,7s4.5,1 6.5,0s8,-2.5 13,-4s4.5,-1.5 1.5,-3s-22,-3.5 -32.5,-3.5c-10.5,0 -20,3.5 -29.5,15s-6.5,23 -2.5,32.5s12,15.5 17.5,16.5c5.5,1 2.5,1.5 2.5,4.5s-6,7.5 -8,10s-6,8.5 -6,11.5s3,2 4,6.5s-2.5,14 -4,21.5s-1.5,10 -2,13s2,14 2,19.5s-3.5,8 -3.5,13.5s0.5,38.5 0,42s-5.5,10 -6.5,13s-2.5,4 3,7.5c4.4,2.8 15.8,5.2 21,6c-0.2,0.8 -0.9,4.1 -2.5,10.5c-2,8 -1.5,17 0,31.5c1.5,14.5 0,17.5 -1.5,21z" class="st2"/>
  <path id="svg_5" stroke="#FFFFFF" fill="#FFFFFF" d="m133,239c-2,2 -14.5,4.5 -21.5,7c-2,2.5 0,3 0.5,4.5s4.5,5.5 6.5,7s6,7.5 7.5,10s4,6 4.5,8s1,6 2.5,5.5s1,-5 0.5,-7.5s-3,-4 -4.5,-7s-1.5,-7 -1,-9s9,-6.5 13.5,-8.5s14.5,-8.5 17.5,-11s14,-9.5 17.5,-11.5s3.5,-2.5 8,-2.5s7,1 7.5,0s-0.5,-1.5 -2.5,-2.5s-1,-1 -2,-3s0,-2 2,-3.5s5,-5 6,-7s5.5,-4 4,-5s-4,2.5 -6,3s-1.5,1 -2,0s2.5,-4.5 3,-5.5s-1,-1 -2.5,0s-2.5,2.5 -4.5,5s-5,2.5 -6.5,2.5s-3.5,4.5 -4,5.5s-19,13 -21,13.5s-11,2 -13,2.5s-8,7.5 -10,9.5z" class="st2"/>
  <path id="svg_6" stroke="#FFFFFF" fill="#FFFFFF" d="m130.5,290.5c-1,-1.5 0,-4.5 0,-5.5c0.5,-1 3,1 4.5,2.5s0,3 0,5s-3.5,-0.5 -4.5,-2z" class="st2"/>
  <path id="svg_7" stroke-miterlimit="10" stroke="#FFFFFF" fill="#FFFFFF" d="m115.5,192c-1.6,-2 -1,-3.8 -0.5,-4.5c1.5,-1 3.5,1 5.5,1.5s5,0.5 8,0.5l8.5,0c2.5,0 0,1 -3.5,2.5s-5,1.5 -6,1.5s0,1.5 2,1.5l5,0c3.5,0 3.5,1 2.5,2s-2.5,2 -8.5,3s-3.5,1 -6,1s-3,0 -4,1s-3,2 -6,3c-3,1 -4.5,0 -5.5,-1s1,-0.5 5.5,-2s6,-4 6,-5s-1,-2.5 -3,-5z" class="st3"/>
  <path id="svg_8" stroke-miterlimit="10" stroke="#FFFFFF" fill="#FFFFFF" d="m127.5,209c0,-0.5 -3.5,-0.5 -5.5,0c-2,1.2 -1.2,2.2 -0.5,2.5c0.8,0 2.8,-0.1 4,-0.5c1.5,-0.5 2,-1.5 2,-2z" class="st3"/>
  <path id="svg_9" stroke-miterlimit="10" stroke="#FFFFFF" fill="#FFFFFF" d="m125.5,214.5c0,-1 -2.5,0 -5,0c-1.6,0.1 -0.7,1.4 0,2l3.5,0c1.5,0 1.5,-1 1.5,-2z" class="st3"/>
  <path id="svg_10" fill="#0D0213" d="m127.5,219c0,-1 -1.5,-1 -4,-1c-2.5,1 0.5,2.5 2,2.5s2,-0.5 2,-1.5z" class="st1"/>
  <path id="svg_11" stroke="#FFFFFF" fill="none" d="m115.5,192c-1.6,-2 -1,-3.8 -0.5,-4.5c1.5,-1 3.5,1 5.5,1.5s5,0.5 8,0.5l8.5,0c2.5,0 0,1 -3.5,2.5s-5,1.5 -6,1.5s0,1.5 2,1.5l5,0c3.5,0 3.5,1 2.5,2s-2.5,2 -8.5,3s-3.5,1 -6,1s-3,0 -4,1s-3,2 -6,3c-3,1 -4.5,0 -5.5,-1s1,-0.5 5.5,-2s6,-4 6,-5s-1,-2.5 -3,-5z" class="st4"/>
  <path id="svg_12" stroke="#FFFFFF" fill="none" d="m127.5,209c0,-0.5 -3.5,-0.5 -5.5,0c-2,1.2 -1.2,2.2 -0.5,2.5c0.8,0 2.8,-0.1 4,-0.5c1.5,-0.5 2,-1.5 2,-2z" class="st4"/>
  <path id="svg_13" stroke="#FFFFFF" fill="none" d="m125.5,214.5c0,-1 -2.5,0 -5,0c-1.6,0.1 -0.7,1.4 0,2l3.5,0c1.5,0 1.5,-1 1.5,-2z" class="st4"/>
  <path id="svg_14" stroke="#FFFFFF" fill="#FFFFFF" d="m127.5,219c0,-1 -1.5,-1 -4,-1c-2.5,1 0.5,2.5 2,2.5s2,-0.5 2,-1.5z" class="st2"/>
  <path id="svg_15" fill="#aabfac" d="m371,70.6c-4.4,-8.8 -3,-24 0.5,-30c1.5,2.7 6.2,8.5 11.5,4c6.5,-5.5 4.3,-8.3 3.5,-9.5c-1,-1.5 -5.5,-1.7 -8,-1.5c0.5,-0.5 2.6,-1.8 4,-2.5c2,-1 5,-2.5 10.5,-2.5s11.5,7 14,6.5s13,-8 17,-9s27,4 27,21s-3,21 -13.5,34.5s-34,28 -34.5,29s1.5,3 1.5,4.5s-5,2 -8.5,1.5c-1.7,-0.2 -2.7,-0.8 -3.4,-1.5c-0.7,-0.8 -0.9,-1.7 -0.6,-2.5c0.5,-1.5 2.5,-2 2,-4.5s-7,-10.5 -9,-14s-8.5,-12.5 -14,-23.5z" class="st5"/>
  <path id="svg_16" stroke-linejoin="round" stroke-linecap="round" stroke-width="3" stroke="#FFFFFF" fill="none" d="m393.5,115.6c-4.5,5.5 -14.3,16.9 -17.5,18.5c-4,2 -9.5,4.5 -11.5,16s-0.5,16.5 -6,20.5c-4.4,3.2 -12.8,3.7 -16.5,3.5m52.5,-57.5c-0.3,2.3 -1.4,7.8 -3,11c-2,4 -3,9 -3,11.5c0,2 0.3,4.2 0.5,5" class="st6"/>
 </g>
</svg>