<?xml version="1.0" encoding="utf-8"?>
<!-- Generator: Adobe Illustrator 25.2.1, SVG Export Plug-In . SVG Version: 6.00 Build 0)  -->
<svg version="1.1" id="Ebene_1" xmlns="http://www.w3.org/2000/svg" xmlns:xlink="http://www.w3.org/1999/xlink" x="0px" y="0px"
	 viewBox="0 0 512 512" style="enable-background:new 0 0 512 512;" xml:space="preserve">
<style type="text/css">
	.st0{fill:#FFFFFF;}
	.st1{fill:#0D0213;}
	.st2{fill:#FFFFFF;stroke:#FFFFFF;}
	.st3{fill:#FFFFFF;stroke:#FFFFFF;stroke-miterlimit:10;}
	.st4{fill:none;stroke:#FFFFFF;}
	.st5{fill:#8412C3;}
	.st6{fill:none;stroke:#FFFFFF;stroke-width:3;stroke-linecap:round;stroke-linejoin:round;}
</style>
<path class="st0" d="M79,469.5c-1.2,2.8-0.5,8.5,0,11c0.8,0.7,5.4,2.5,17,4.5c14.5,2.5,33.5-0.5,35.5-1.5s1.5-4.5,1-6.5
	s-5.5-3.5-8-4s-2,1.5-3,2.5s-4-0.5-7-3s-3-10.5-2.5-16s4.5-26.5,4.5-28s0.5-18,0.5-20s11.5-2.5,15.5-2.5s41-4.5,45.5-4.5s7-5,7-7.5
	s-14.5-18.5-16.5-19.5s-8.5-10-9.5-10s-1,1-1,2s9,10.5,9.5,11s0,3.5-1,3.5s-3-3.5-4-3s0.5,2-3.5,2s-3.5-5.5-4.5-8.5s-3.5-8-3.5-12
	V351c0-1-4-8-5.5-11s-2-13-2-16.5s-9-16-10.5-18.5s-7-7-8.5-7s-5.5,3-6,4.5s2.5,1,4,2s2,5.5,3,7s10,15,10.5,17s7,20,7.5,22.5
	s-1,1.5-2,1s-9.5-24-10-25s-4.5-7.5-5.5-7.5s0.5,4.5,1.5,6S131,336,130,336s-8-14.5-8.5-16.5s-7-15-7.5-16.5s2.5-3,3-4s-1-1.5-3-1.5
	s-9.5-3.5-9.5-5s2.5-4,3.5-5s1.5-2,1.5-3s-4-3-5-4.5s1.5-2.5,2-3s2.5-3.5,2-4.5s-8.5-5-10.5-4s-7,13.5-8,16s-5,15.5-5,18s1,14,2,16
	s7.5,7.5,8.5,8s3.5,3.5,4,5s-2,1-3,0.5s-2-2.5-4-2.5s0.5,2,1,3.5s3.5,4,3.5,5s0,2-1,2s-4.5-3-5.5-5s-2.5-5.5-3.5-8
	s-6.5-6.5-8.5-11.5S77,300,77,297.5s6-2.5,7-5.5s2.5-11,4-21.5s5-9.5,8-9.5s9,6.5,10.5,6.5s1-4.5,0-6.5s-14.5-7-16-10s4.5-2,6.5-3.5
	s8-0.5,9.5-1.5s1-6,2.5-9s17-10,17-12s-2-2-4.5-3.5s-2.5-3.5-2.5-5s-1-3.5-4-4s-5-4-7.5-4.5s-5-1.5-7-1c-2,0.5-7.5-3-9.5-4
	s-8.5-2-7.5-3.5S90,198,92,198s7.5,3.5,9,4c1.5,0.5,4.5-1.5,4-2.5s-2-1.5-2.5-2s3-1.5,1.5-2.5s-7-0.5-7-2s1.5-2.5,3-3
	c1.5-0.5,0.5-2.5-0.5-4c-1-1.5-8.5-5.5-9-8.5s7.5,0,10.5,0c3,0,2,5,5.5,7s4.5,1,6.5,0s8-2.5,13-4s4.5-1.5,1.5-3s-22-3.5-32.5-3.5
	c-10.5,0-20,3.5-29.5,15S59,212,63,221.5S75,237,80.5,238c5.5,1,2.5,1.5,2.5,4.5s-6,7.5-8,10s-6,8.5-6,11.5s3,2,4,6.5
	s-2.5,14-4,21.5s-1.5,10-2,13s2,14,2,19.5s-3.5,8-3.5,13.5s0.5,38.5,0,42S60,390,59,393s-2.5,4,3,7.5c4.4,2.8,15.8,5.2,21,6
	c-0.2,0.8-0.9,4.1-2.5,10.5c-2,8-1.5,17,0,31.5C82,463,80.5,466,79,469.5z"/>
<path class="st1" d="M133,239c-2,2-14.5,4.5-21.5,7c-2,2.5,0,3,0.5,4.5s4.5,5.5,6.5,7s6,7.5,7.5,10s4,6,4.5,8s1,6,2.5,5.5
	s1-5,0.5-7.5s-3-4-4.5-7s-1.5-7-1-9s9-6.5,13.5-8.5s14.5-8.5,17.5-11s14-9.5,17.5-11.5s3.5-2.5,8-2.5s7,1,7.5,0s-0.5-1.5-2.5-2.5
	s-1-1-2-3s0-2,2-3.5s5-5,6-7s5.5-4,4-5s-4,2.5-6,3s-1.5,1-2,0s2.5-4.5,3-5.5s-1-1-2.5,0s-2.5,2.5-4.5,5s-5,2.5-6.5,2.5
	s-3.5,4.5-4,5.5s-19,13-21,13.5s-11,2-13,2.5S135,237,133,239z"/>
<path class="st1" d="M130.5,290.5c-1-1.5,0-4.5,0-5.5c0.5-1,3,1,4.5,2.5s0,3,0,5S131.5,292,130.5,290.5z"/>
<path class="st2" d="M79,469.5c-1.2,2.8-0.5,8.5,0,11c0.8,0.7,5.4,2.5,17,4.5c14.5,2.5,33.5-0.5,35.5-1.5s1.5-4.5,1-6.5
	s-5.5-3.5-8-4s-2,1.5-3,2.5s-4-0.5-7-3s-3-10.5-2.5-16s4.5-26.5,4.5-28s0.5-18,0.5-20s11.5-2.5,15.5-2.5s41-4.5,45.5-4.5s7-5,7-7.5
	s-14.5-18.5-16.5-19.5s-8.5-10-9.5-10s-1,1-1,2s9,10.5,9.5,11s0,3.5-1,3.5s-3-3.5-4-3s0.5,2-3.5,2s-3.5-5.5-4.5-8.5s-3.5-8-3.5-12
	V351c0-1-4-8-5.5-11s-2-13-2-16.5s-9-16-10.5-18.5s-7-7-8.5-7s-5.5,3-6,4.5s2.5,1,4,2s2,5.5,3,7s10,15,10.5,17s7,20,7.5,22.5
	s-1,1.5-2,1s-9.5-24-10-25s-4.5-7.5-5.5-7.5s0.5,4.5,1.5,6S131,336,130,336s-8-14.5-8.5-16.5s-7-15-7.5-16.5s2.5-3,3-4s-1-1.5-3-1.5
	s-9.5-3.5-9.5-5s2.5-4,3.5-5s1.5-2,1.5-3s-4-3-5-4.5s1.5-2.5,2-3s2.5-3.5,2-4.5s-8.5-5-10.5-4s-7,13.5-8,16s-5,15.5-5,18s1,14,2,16
	s7.5,7.5,8.5,8s3.5,3.5,4,5s-2,1-3,0.5s-2-2.5-4-2.5s0.5,2,1,3.5s3.5,4,3.5,5s0,2-1,2s-4.5-3-5.5-5s-2.5-5.5-3.5-8
	s-6.5-6.5-8.5-11.5S77,300,77,297.5s6-2.5,7-5.5s2.5-11,4-21.5s5-9.5,8-9.5s9,6.5,10.5,6.5s1-4.5,0-6.5s-14.5-7-16-10s4.5-2,6.5-3.5
	s8-0.5,9.5-1.5s1-6,2.5-9s17-10,17-12s-2-2-4.5-3.5s-2.5-3.5-2.5-5s-1-3.5-4-4s-5-4-7.5-4.5s-5-1.5-7-1c-2,0.5-7.5-3-9.5-4
	s-8.5-2-7.5-3.5S90,198,92,198s7.5,3.5,9,4c1.5,0.5,4.5-1.5,4-2.5s-2-1.5-2.5-2s3-1.5,1.5-2.5s-7-0.5-7-2s1.5-2.5,3-3
	c1.5-0.5,0.5-2.5-0.5-4c-1-1.5-8.5-5.5-9-8.5s7.5,0,10.5,0c3,0,2,5,5.5,7s4.5,1,6.5,0s8-2.5,13-4s4.5-1.5,1.5-3s-22-3.5-32.5-3.5
	c-10.5,0-20,3.5-29.5,15S59,212,63,221.5S75,237,80.5,238c5.5,1,2.5,1.5,2.5,4.5s-6,7.5-8,10s-6,8.5-6,11.5s3,2,4,6.5
	s-2.5,14-4,21.5s-1.5,10-2,13s2,14,2,19.5s-3.5,8-3.5,13.5s0.5,38.5,0,42S60,390,59,393s-2.5,4,3,7.5c4.4,2.8,15.8,5.2,21,6
	c-0.2,0.8-0.9,4.1-2.5,10.5c-2,8-1.5,17,0,31.5C82,463,80.5,466,79,469.5z"/>
<path class="st2" d="M133,239c-2,2-14.5,4.5-21.5,7c-2,2.5,0,3,0.5,4.5s4.5,5.5,6.5,7s6,7.5,7.5,10s4,6,4.5,8s1,6,2.5,5.5
	s1-5,0.5-7.5s-3-4-4.5-7s-1.5-7-1-9s9-6.5,13.5-8.5s14.5-8.5,17.5-11s14-9.5,17.5-11.5s3.5-2.5,8-2.5s7,1,7.5,0s-0.5-1.5-2.5-2.5
	s-1-1-2-3s0-2,2-3.5s5-5,6-7s5.5-4,4-5s-4,2.5-6,3s-1.5,1-2,0s2.5-4.5,3-5.5s-1-1-2.5,0s-2.5,2.5-4.5,5s-5,2.5-6.5,2.5
	s-3.5,4.5-4,5.5s-19,13-21,13.5s-11,2-13,2.5S135,237,133,239z"/>
<path class="st2" d="M130.5,290.5c-1-1.5,0-4.5,0-5.5c0.5-1,3,1,4.5,2.5s0,3,0,5S131.5,292,130.5,290.5z"/>
<path class="st3" d="M115.5,192c-1.6-2-1-3.8-0.5-4.5c1.5-1,3.5,1,5.5,1.5s5,0.5,8,0.5h8.5c2.5,0,0,1-3.5,2.5s-5,1.5-6,1.5
	s0,1.5,2,1.5h5c3.5,0,3.5,1,2.5,2s-2.5,2-8.5,3s-3.5,1-6,1s-3,0-4,1s-3,2-6,3c-3,1-4.5,0-5.5-1s1-0.5,5.5-2s6-4,6-5
	S117.5,194.5,115.5,192z"/>
<path class="st3" d="M127.5,209c0-0.5-3.5-0.5-5.5,0c-2,1.2-1.2,2.2-0.5,2.5c0.8,0,2.8-0.1,4-0.5C127,210.5,127.5,209.5,127.5,209z"
	/>
<path class="st3" d="M125.5,214.5c0-1-2.5,0-5,0c-1.6,0.1-0.7,1.4,0,2h3.5C125.5,216.5,125.5,215.5,125.5,214.5z"/>
<path class="st1" d="M127.5,219c0-1-1.5-1-4-1c-2.5,1,0.5,2.5,2,2.5S127.5,220,127.5,219z"/>
<path class="st4" d="M115.5,192c-1.6-2-1-3.8-0.5-4.5c1.5-1,3.5,1,5.5,1.5s5,0.5,8,0.5h8.5c2.5,0,0,1-3.5,2.5s-5,1.5-6,1.5
	s0,1.5,2,1.5h5c3.5,0,3.5,1,2.5,2s-2.5,2-8.5,3s-3.5,1-6,1s-3,0-4,1s-3,2-6,3c-3,1-4.5,0-5.5-1s1-0.5,5.5-2s6-4,6-5
	S117.5,194.5,115.5,192z"/>
<path class="st4" d="M127.5,209c0-0.5-3.5-0.5-5.5,0c-2,1.2-1.2,2.2-0.5,2.5c0.8,0,2.8-0.1,4-0.5C127,210.5,127.5,209.5,127.5,209z"
	/>
<path class="st4" d="M125.5,214.5c0-1-2.5,0-5,0c-1.6,0.1-0.7,1.4,0,2h3.5C125.5,216.5,125.5,215.5,125.5,214.5z"/>
<path class="st2" d="M127.5,219c0-1-1.5-1-4-1c-2.5,1,0.5,2.5,2,2.5S127.5,220,127.5,219z"/>
<path class="st5" d="M371,70.6c-4.4-8.8-3-24,0.5-30c1.5,2.7,6.2,8.5,11.5,4c6.5-5.5,4.3-8.3,3.5-9.5c-1-1.5-5.5-1.7-8-1.5
	c0.5-0.5,2.6-1.8,4-2.5c2-1,5-2.5,10.5-2.5s11.5,7,14,6.5s13-8,17-9s27,4,27,21s-3,21-13.5,34.5s-34,28-34.5,29s1.5,3,1.5,4.5
	s-5,2-8.5,1.5c-1.7-0.2-2.7-0.8-3.4-1.5c-0.7-0.8-0.9-1.7-0.6-2.5c0.5-1.5,2.5-2,2-4.5s-7-10.5-9-14S376.5,81.6,371,70.6z"/>
<path class="st6" d="M393.5,115.6c-4.5,5.5-14.3,16.9-17.5,18.5c-4,2-9.5,4.5-11.5,16s-0.5,16.5-6,20.5c-4.4,3.2-12.8,3.7-16.5,3.5
	 M394.5,116.6c-0.3,2.3-1.4,7.8-3,11c-2,4-3,9-3,11.5c0,2,0.3,4.2,0.5,5"/>
</svg>
